<svg width="307" height="57" viewBox="0 0 307 57" fill="none" xmlns="http://www.w3.org/2000/svg">
<rect width="307" height="57" rx="28.5" fill="#0575E6"/>
<path d="M118.102 28.114C118.102 27.162 118.317 26.308 118.746 25.552C119.175 24.7867 119.759 24.1893 120.496 23.76C121.243 23.3307 122.069 23.116 122.974 23.116C124.038 23.116 124.967 23.3727 125.76 23.886C126.553 24.3993 127.132 25.1273 127.496 26.07H125.97C125.699 25.482 125.307 25.0293 124.794 24.712C124.29 24.3947 123.683 24.236 122.974 24.236C122.293 24.236 121.681 24.3947 121.14 24.712C120.599 25.0293 120.174 25.482 119.866 26.07C119.558 26.6487 119.404 27.33 119.404 28.114C119.404 28.8887 119.558 29.57 119.866 30.158C120.174 30.7367 120.599 31.1847 121.14 31.502C121.681 31.8193 122.293 31.978 122.974 31.978C123.683 31.978 124.29 31.824 124.794 31.516C125.307 31.1987 125.699 30.746 125.97 30.158H127.496C127.132 31.0913 126.553 31.8147 125.76 32.328C124.967 32.832 124.038 33.084 122.974 33.084C122.069 33.084 121.243 32.874 120.496 32.454C119.759 32.0247 119.175 31.432 118.746 30.676C118.317 29.92 118.102 29.066 118.102 28.114ZM128.916 29.136C128.916 28.352 129.075 27.666 129.392 27.078C129.71 26.4807 130.144 26.0187 130.694 25.692C131.254 25.3653 131.875 25.202 132.556 25.202C133.228 25.202 133.812 25.3467 134.306 25.636C134.801 25.9253 135.17 26.2893 135.412 26.728V25.328H136.7V33H135.412V31.572C135.16 32.02 134.782 32.3933 134.278 32.692C133.784 32.9813 133.205 33.126 132.542 33.126C131.861 33.126 131.245 32.958 130.694 32.622C130.144 32.286 129.71 31.8147 129.392 31.208C129.075 30.6013 128.916 29.9107 128.916 29.136ZM135.412 29.15C135.412 28.5713 135.296 28.0673 135.062 27.638C134.829 27.2087 134.512 26.882 134.11 26.658C133.718 26.4247 133.284 26.308 132.808 26.308C132.332 26.308 131.898 26.42 131.506 26.644C131.114 26.868 130.802 27.1947 130.568 27.624C130.335 28.0533 130.218 28.5573 130.218 29.136C130.218 29.724 130.335 30.2373 130.568 30.676C130.802 31.1053 131.114 31.4367 131.506 31.67C131.898 31.894 132.332 32.006 132.808 32.006C133.284 32.006 133.718 31.894 134.11 31.67C134.512 31.4367 134.829 31.1053 135.062 30.676C135.296 30.2373 135.412 29.7287 135.412 29.15ZM138.377 29.136C138.377 28.352 138.536 27.666 138.853 27.078C139.171 26.4807 139.605 26.0187 140.155 25.692C140.715 25.3653 141.341 25.202 142.031 25.202C142.629 25.202 143.184 25.342 143.697 25.622C144.211 25.8927 144.603 26.252 144.873 26.7V22.64H146.161V33H144.873V31.558C144.621 32.0153 144.248 32.3933 143.753 32.692C143.259 32.9813 142.68 33.126 142.017 33.126C141.336 33.126 140.715 32.958 140.155 32.622C139.605 32.286 139.171 31.8147 138.853 31.208C138.536 30.6013 138.377 29.9107 138.377 29.136ZM144.873 29.15C144.873 28.5713 144.757 28.0673 144.523 27.638C144.29 27.2087 143.973 26.882 143.571 26.658C143.179 26.4247 142.745 26.308 142.269 26.308C141.793 26.308 141.359 26.42 140.967 26.644C140.575 26.868 140.263 27.1947 140.029 27.624C139.796 28.0533 139.679 28.5573 139.679 29.136C139.679 29.724 139.796 30.2373 140.029 30.676C140.263 31.1053 140.575 31.4367 140.967 31.67C141.359 31.894 141.793 32.006 142.269 32.006C142.745 32.006 143.179 31.894 143.571 31.67C143.973 31.4367 144.29 31.1053 144.523 30.676C144.757 30.2373 144.873 29.7287 144.873 29.15ZM147.838 29.136C147.838 28.352 147.997 27.666 148.314 27.078C148.632 26.4807 149.066 26.0187 149.616 25.692C150.176 25.3653 150.797 25.202 151.478 25.202C152.15 25.202 152.734 25.3467 153.228 25.636C153.723 25.9253 154.092 26.2893 154.334 26.728V25.328H155.622V33H154.334V31.572C154.082 32.02 153.704 32.3933 153.2 32.692C152.706 32.9813 152.127 33.126 151.464 33.126C150.783 33.126 150.167 32.958 149.616 32.622C149.066 32.286 148.632 31.8147 148.314 31.208C147.997 30.6013 147.838 29.9107 147.838 29.136ZM154.334 29.15C154.334 28.5713 154.218 28.0673 153.984 27.638C153.751 27.2087 153.434 26.882 153.032 26.658C152.64 26.4247 152.206 26.308 151.73 26.308C151.254 26.308 150.82 26.42 150.428 26.644C150.036 26.868 149.724 27.1947 149.49 27.624C149.257 28.0533 149.14 28.5573 149.14 29.136C149.14 29.724 149.257 30.2373 149.49 30.676C149.724 31.1053 150.036 31.4367 150.428 31.67C150.82 31.894 151.254 32.006 151.73 32.006C152.206 32.006 152.64 31.894 153.032 31.67C153.434 31.4367 153.751 31.1053 153.984 30.676C154.218 30.2373 154.334 29.7287 154.334 29.15ZM160.491 33.126C159.903 33.126 159.376 33.028 158.909 32.832C158.443 32.6267 158.074 32.3467 157.803 31.992C157.533 31.628 157.383 31.2127 157.355 30.746H158.671C158.709 31.1287 158.886 31.4413 159.203 31.684C159.53 31.9267 159.955 32.048 160.477 32.048C160.963 32.048 161.345 31.9407 161.625 31.726C161.905 31.5113 162.045 31.2407 162.045 30.914C162.045 30.578 161.896 30.3307 161.597 30.172C161.299 30.004 160.837 29.8407 160.211 29.682C159.642 29.5327 159.175 29.3833 158.811 29.234C158.457 29.0753 158.149 28.8467 157.887 28.548C157.635 28.24 157.509 27.8387 157.509 27.344C157.509 26.952 157.626 26.5927 157.859 26.266C158.093 25.9393 158.424 25.6827 158.853 25.496C159.283 25.3 159.773 25.202 160.323 25.202C161.173 25.202 161.859 25.4167 162.381 25.846C162.904 26.2753 163.184 26.8633 163.221 27.61H161.947C161.919 27.2087 161.756 26.8867 161.457 26.644C161.168 26.4013 160.776 26.28 160.281 26.28C159.824 26.28 159.46 26.378 159.189 26.574C158.919 26.77 158.783 27.0267 158.783 27.344C158.783 27.596 158.863 27.806 159.021 27.974C159.189 28.1327 159.395 28.2633 159.637 28.366C159.889 28.4593 160.235 28.5667 160.673 28.688C161.224 28.8373 161.672 28.9867 162.017 29.136C162.363 29.276 162.657 29.4907 162.899 29.78C163.151 30.0693 163.282 30.4473 163.291 30.914C163.291 31.334 163.175 31.712 162.941 32.048C162.708 32.384 162.377 32.65 161.947 32.846C161.527 33.0327 161.042 33.126 160.491 33.126ZM166.644 26.378V30.9C166.644 31.2733 166.723 31.5393 166.882 31.698C167.04 31.8473 167.316 31.922 167.708 31.922H168.646V33H167.498C166.788 33 166.256 32.8367 165.902 32.51C165.547 32.1833 165.37 31.6467 165.37 30.9V26.378H164.376V25.328H165.37V23.396H166.644V25.328H168.646V26.378H166.644ZM171.463 26.574C171.687 26.1353 172.005 25.7947 172.415 25.552C172.835 25.3093 173.344 25.188 173.941 25.188V26.504H173.605C172.177 26.504 171.463 27.2787 171.463 28.828V33H170.189V25.328H171.463V26.574ZM174.936 29.136C174.936 28.352 175.095 27.666 175.412 27.078C175.729 26.4807 176.163 26.0187 176.714 25.692C177.274 25.3653 177.895 25.202 178.576 25.202C179.248 25.202 179.831 25.3467 180.326 25.636C180.821 25.9253 181.189 26.2893 181.432 26.728V25.328H182.72V33H181.432V31.572C181.18 32.02 180.802 32.3933 180.298 32.692C179.803 32.9813 179.225 33.126 178.562 33.126C177.881 33.126 177.265 32.958 176.714 32.622C176.163 32.286 175.729 31.8147 175.412 31.208C175.095 30.6013 174.936 29.9107 174.936 29.136ZM181.432 29.15C181.432 28.5713 181.315 28.0673 181.082 27.638C180.849 27.2087 180.531 26.882 180.13 26.658C179.738 26.4247 179.304 26.308 178.828 26.308C178.352 26.308 177.918 26.42 177.526 26.644C177.134 26.868 176.821 27.1947 176.588 27.624C176.355 28.0533 176.238 28.5573 176.238 29.136C176.238 29.724 176.355 30.2373 176.588 30.676C176.821 31.1053 177.134 31.4367 177.526 31.67C177.918 31.894 178.352 32.006 178.828 32.006C179.304 32.006 179.738 31.894 180.13 31.67C180.531 31.4367 180.849 31.1053 181.082 30.676C181.315 30.2373 181.432 29.7287 181.432 29.15ZM186.147 26.574C186.371 26.1353 186.688 25.7947 187.099 25.552C187.519 25.3093 188.028 25.188 188.625 25.188V26.504H188.289C186.861 26.504 186.147 27.2787 186.147 28.828V33H184.873V25.328H186.147V26.574Z" fill="white"/>
</svg>
